<svg version="1.1" id="Layer_1" xmlns="http://www.w3.org/2000/svg" xmlns:xlink="http://www.w3.org/1999/xlink" x="0px" y="0px"
	 width="100%" viewBox="0 0 1024 1024" enable-background="new 0 0 1024 1024" xml:space="preserve">
<path fill="#000000" opacity="1.000000" stroke="none" 
	d="
M524.774048,441.958435 
	C541.047302,444.943390 556.882080,445.248352 572.908691,443.292603 
	C588.085571,441.440552 603.407166,440.808075 618.621094,439.217987 
	C639.887878,436.995331 660.465698,431.468079 680.798523,425.094604 
	C698.265320,419.619598 716.149048,415.701294 733.670288,410.391541 
	C744.909729,406.985413 756.349609,407.967560 767.954651,411.550079 
	C785.526184,416.974426 802.499634,423.470551 818.570312,432.394318 
	C821.221069,433.866211 822.034607,435.471466 821.138855,438.389679 
	C819.137817,444.908386 816.341187,451.143097 814.615051,457.774353 
	C813.692627,461.318146 810.451111,462.246887 806.956787,461.842804 
	C782.853210,459.055634 758.765015,461.390656 734.665405,461.964508 
	C717.421631,462.375122 700.539246,465.068024 683.871521,469.225555 
	C670.418884,472.581146 657.895874,478.597870 644.934570,483.363800 
	C623.887756,491.102844 602.098083,495.808014 579.849182,497.942291 
	C552.705078,500.546082 526.010437,498.091522 500.233948,488.474701 
	C497.572144,487.481598 494.808655,486.729889 492.675781,484.764679 
	C488.602692,481.011902 488.753998,478.357758 493.106812,475.035187 
	C502.104614,468.166962 506.529846,453.665039 503.006958,442.936798 
	C501.802002,439.267334 499.433075,436.335052 497.429504,432.630951 
	C506.112396,436.856293 514.309387,442.205139 524.774048,441.958435 
z"/>
<path fill="#000000" opacity="1.000000" stroke="none" 
	d="
M376.541321,315.558655 
	C387.858826,305.737976 398.884186,296.122681 409.942932,286.545898 
	C410.658722,285.925995 411.874542,285.001801 412.446899,285.233612 
	C418.566101,287.711975 425.343719,287.837677 432.095947,290.435364 
	C425.487396,296.403870 419.421204,301.989319 413.238159,307.442261 
	C403.399658,316.119080 393.475403,324.698669 383.601746,333.335815 
	C372.976685,342.630249 362.426788,352.011780 351.724792,361.216583 
	C347.180725,365.124939 344.254181,370.000519 341.736420,375.319336 
	C326.782532,406.909851 311.030182,438.118378 296.494385,469.911072 
	C295.139313,472.874847 295.406830,474.213684 298.476044,475.620972 
	C305.234192,478.719696 312.274811,481.404602 318.080688,486.344482 
	C317.091187,489.700378 314.234009,491.167267 312.390778,493.445404 
	C308.945129,497.704193 305.272919,501.750641 302.830078,506.789948 
	C300.182068,512.252502 298.944092,512.500366 293.658356,509.434387 
	C290.622925,507.673706 287.629089,505.999634 284.155029,505.143738 
	C281.415344,504.468750 279.730621,505.090088 278.543671,507.652466 
	C269.873749,526.368652 261.499207,545.234131 252.277206,563.675354 
	C249.005676,570.217468 249.359131,574.779114 253.075943,581.113403 
	C259.046539,591.288635 257.706177,602.115112 250.374359,611.521423 
	C243.569977,620.251099 233.984497,622.911194 223.510666,620.940430 
	C212.381439,618.846375 205.343597,611.688904 202.361282,600.702820 
	C198.010452,584.675598 209.893173,567.824463 226.488617,566.752869 
	C229.525894,566.556763 231.262222,565.748901 232.570419,562.853821 
	C241.617844,542.831848 250.841446,522.889404 260.017670,502.925690 
	C262.579620,497.351898 262.123840,495.950378 256.181671,494.573944 
	C242.824646,491.480072 229.549225,491.958801 216.164948,495.172089 
	C199.009689,499.290619 181.608871,502.593567 165.513626,510.094666 
	C152.271301,516.266174 138.853500,522.347351 128.745911,533.516113 
	C128.081711,534.250000 127.508675,535.068115 126.913193,535.862061 
	C126.319702,536.653381 125.771652,537.490906 124.327011,537.703674 
	C124.012886,533.693115 125.949608,530.563049 127.911903,527.687927 
	C149.599091,495.912231 179.019547,475.039032 216.856781,467.644348 
	C234.789352,464.139740 253.278900,463.929504 271.293671,468.789124 
	C274.504761,469.655334 275.416107,468.283386 276.485016,465.978760 
	C284.958405,447.709625 293.440247,429.444183 301.987793,411.209686 
	C310.252533,393.578430 318.546387,375.960388 326.948120,358.394257 
	C328.877838,354.359619 332.863281,352.149902 336.154633,349.378662 
	C349.495911,338.145691 362.885284,326.969849 376.541321,315.558655 
z"/>
<path fill="#000000" opacity="1.000000" stroke="none" 
	d="
M436.520599,485.632629 
	C404.261658,486.708160 372.459320,485.867249 340.664978,486.182892 
	C320.017731,486.387878 311.008545,467.397980 314.939209,451.795074 
	C320.441528,429.953613 330.424530,410.300690 350.219482,397.477570 
	C357.023682,393.069855 364.452423,390.508820 372.834351,390.786407 
	C378.040009,390.958832 382.184814,392.646912 385.594482,396.430298 
	C398.656128,410.923828 414.930939,419.954712 434.030212,423.103088 
	C446.647369,425.182953 459.489105,426.097137 471.976257,428.949524 
	C479.505493,430.669403 487.146149,432.294586 493.194519,438.110962 
	C501.297729,445.903351 500.604980,456.897888 494.577667,464.768768 
	C485.611816,476.476959 473.679901,482.870605 458.898224,484.293884 
	C451.595459,484.997009 444.299042,485.301636 436.520599,485.632629 
z"/>
<path fill="#000000" opacity="1.000000" stroke="none" 
	d="
M868.076050,616.777588 
	C863.612366,643.882568 850.958557,665.656250 829.335815,682.016846 
	C796.087585,707.173767 748.189453,707.709839 712.730286,683.303162 
	C708.353027,680.290344 704.327637,676.763306 700.171753,673.433838 
	C699.024048,672.514404 697.847656,671.538879 697.785217,669.951416 
	C698.834961,668.754883 699.774231,669.477356 700.581665,669.907532 
	C723.404663,682.066162 747.479370,684.417725 772.635254,679.584106 
	C792.740479,675.721008 808.466492,664.795654 822.595947,650.595581 
	C829.340515,643.817383 835.604858,636.896667 840.103577,628.411621 
	C846.912598,615.568970 847.788330,602.244141 844.528442,588.225403 
	C838.877075,563.922424 825.449463,544.153137 807.453125,527.862427 
	C798.255188,519.536133 786.396240,514.406128 773.779724,511.315887 
	C759.952637,507.929169 746.433594,509.986023 733.325012,512.867310 
	C721.171143,515.538818 710.591858,522.888245 701.316284,531.469727 
	C697.083496,535.385864 692.445679,537.352783 686.744324,536.766052 
	C686.254150,533.780212 688.049255,532.728027 689.164795,531.420349 
	C720.511597,494.672699 773.637268,485.443878 815.237793,510.227997 
	C851.073364,531.577637 868.914856,563.657898 869.124451,605.412415 
	C869.142700,609.054138 868.484863,612.699341 868.076050,616.777588 
z"/>
<path fill="#000000" opacity="1.000000" stroke="none" 
	d="
M264.259583,691.331543 
	C246.460526,704.357422 226.706375,711.323120 205.162842,710.806274 
	C168.007446,709.914795 139.396912,693.027222 120.573044,660.918091 
	C93.605934,614.918396 106.103905,554.564880 149.315292,523.398132 
	C178.172867,502.584259 209.841507,497.859863 243.544296,510.703644 
	C245.527435,511.459351 247.649002,512.044006 249.549438,514.073242 
	C245.653778,517.649658 241.371094,518.602783 236.378082,517.419922 
	C226.846909,515.161865 217.299667,513.953125 207.371201,513.956726 
	C198.436829,513.960022 190.685791,516.989746 182.908951,520.049133 
	C175.273895,523.052734 167.766525,526.261963 161.286346,532.076355 
	C147.429688,544.509399 138.160675,559.193115 134.153687,577.400024 
	C130.801834,592.630188 128.907990,607.896912 131.358231,623.412170 
	C134.660431,644.322205 143.316895,661.661194 163.444641,671.502136 
	C179.960266,679.577026 197.351654,684.400452 215.644379,684.687988 
	C233.468811,684.968262 249.848495,679.370544 265.218994,670.211426 
	C279.019165,661.987976 290.862793,651.928955 299.689484,638.442261 
	C299.926788,638.079651 300.467407,637.915649 300.908478,637.632080 
	C302.117432,647.350403 285.452362,676.176331 264.259583,691.331543 
z"/>
<path fill="#000000" opacity="1.000000" stroke="none" 
	d="
M661.382202,555.000122 
	C661.396667,566.824097 661.276855,578.150757 661.500488,589.470581 
	C661.574402,593.211182 660.367737,594.523193 656.650269,594.346313 
	C651.499329,594.101196 646.319214,594.091736 641.168640,594.337891 
	C637.155457,594.529785 635.863464,592.779175 635.956360,589.030701 
	C636.113098,582.705994 636.033142,576.375366 636.050232,570.047241 
	C636.054993,568.278259 636.050964,566.509277 636.050964,564.740295 
	C635.649902,564.603088 635.248901,564.465942 634.847839,564.328735 
	C630.046021,570.808228 625.238159,577.283203 620.447571,583.770935 
	C619.458984,585.109741 618.283264,586.385132 617.623535,587.879395 
	C614.434204,595.103333 608.257629,594.690063 601.996399,594.229370 
	C599.449280,594.041931 598.372986,592.034668 597.126404,590.327209 
	C591.923462,583.200195 586.798218,576.016479 581.631042,568.863281 
	C580.504578,567.303894 579.322876,565.784546 577.086487,564.590576 
	C577.086487,572.335327 577.107727,580.080139 577.079773,587.824829 
	C577.057373,594.045898 576.821045,594.267212 570.608398,594.285950 
	C565.612549,594.300964 560.612305,594.155334 555.622131,594.322449 
	C552.120728,594.439636 550.919189,592.899902 550.933838,589.558716 
	C551.012634,571.574219 551.031006,553.588989 550.960449,535.604492 
	C550.946594,532.082825 552.073547,530.479187 555.874939,530.588135 
	C563.529114,530.807617 571.195557,530.746582 578.853516,530.610352 
	C581.649414,530.560608 583.489807,531.602661 585.154419,533.783691 
	C591.013062,541.459839 597.013550,549.027893 602.981201,556.620483 
	C603.988159,557.901611 604.707458,559.502014 607.041199,560.254700 
	C613.367981,552.196106 620.031128,544.141968 626.163391,535.702026 
	C628.923645,531.903076 631.905151,530.313843 636.561890,530.552979 
	C643.372070,530.902832 650.214783,530.753296 657.039795,530.621094 
	C660.259705,530.558716 661.478027,531.793396 661.404175,535.017151 
	C661.255432,541.508240 661.373657,548.005432 661.382202,555.000122 
z"/>
<path fill="#000000" opacity="1.000000" stroke="none" 
	d="
M226.822601,333.035339 
	C226.874756,328.557709 226.754028,324.596222 227.538315,320.617371 
	C228.383377,316.330292 230.837418,314.172791 234.979340,313.904083 
	C254.043518,312.667358 272.494598,314.960785 289.862946,323.521423 
	C297.082184,327.079651 302.548523,332.548035 307.276978,338.889221 
	C309.733612,342.183777 310.005188,345.590729 307.743042,349.091736 
	C301.552917,358.671906 293.815063,366.118378 282.741241,370.253906 
	C266.830475,376.195770 250.631500,378.444855 233.794571,376.806030 
	C229.065201,376.345734 226.664413,373.876007 226.677094,368.965576 
	C226.707596,357.153320 226.772217,345.341187 226.822601,333.035339 
z"/>
<path fill="#000000" opacity="1.000000" stroke="none" 
	d="
M489.703491,553.693176 
	C498.775970,555.652344 507.685791,554.612854 516.451233,555.746582 
	C522.747742,556.560974 528.995850,557.414490 534.978210,559.617126 
	C540.612305,561.691528 545.118347,564.911987 545.639709,571.491394 
	C546.162231,578.086182 543.995850,583.658630 538.456421,587.555359 
	C530.191895,593.368958 520.518005,594.550842 510.873596,595.121460 
	C500.571198,595.731018 490.202820,595.721008 480.059448,593.221069 
	C471.173401,591.031006 464.053955,586.694275 461.221954,577.266602 
	C460.155609,573.716736 460.960754,571.798584 465.017365,571.855164 
	C471.014496,571.938782 477.013550,571.886902 483.011810,571.881409 
	C484.907074,571.879700 486.500366,572.484131 488.079407,573.619080 
	C496.824432,579.905029 506.320068,578.332520 515.821777,575.978943 
	C517.082825,575.666626 518.257202,574.844055 518.491699,572.811218 
	C515.524048,570.191284 511.606812,570.548584 507.957275,570.436584 
	C497.630768,570.119690 487.331757,569.656982 477.205658,567.400635 
	C475.422791,567.003418 473.633911,566.545715 471.929260,565.900696 
	C466.057251,563.678772 460.968933,560.515503 460.458221,553.486755 
	C459.906036,545.887573 462.734467,539.769775 469.525330,535.892822 
	C475.562927,532.445923 482.213196,530.827637 489.056488,530.240173 
	C501.697083,529.155334 514.358398,528.822876 526.820374,531.813293 
	C534.767029,533.720154 541.436462,537.469604 544.375488,545.786743 
	C545.042603,547.674500 545.738220,549.553101 544.904785,552.341187 
	C536.546509,552.268616 526.847473,555.097595 519.744202,551.341309 
	C511.430450,546.944763 503.693634,546.967712 495.301178,547.247925 
	C493.117340,547.320862 490.972809,547.895752 489.166534,549.156128 
	C487.078003,550.613525 486.540070,552.222290 489.703491,553.693176 
z"/>
<path fill="#000000" opacity="1.000000" stroke="none" 
	d="
M415.991425,530.647217 
	C426.420990,528.732788 431.922943,532.861816 436.187103,542.135376 
	C443.477783,557.990967 452.354218,573.117065 460.552826,588.555847 
	C461.314362,589.989807 461.990662,591.468933 462.591248,592.692261 
	C461.551575,594.630432 460.081116,594.244934 458.829041,594.259399 
	C454.332703,594.311401 449.799316,593.914978 445.346771,594.358826 
	C438.401062,595.051025 432.839630,594.035095 430.840454,586.144470 
	C430.334259,584.146423 428.566162,583.433899 426.528046,583.437805 
	C418.700134,583.452881 410.870911,583.520325 403.044861,583.396484 
	C399.826080,583.345520 398.499847,585.454773 397.794403,587.839966 
	C396.181427,593.293701 392.713776,594.787292 387.278107,594.397217 
	C380.691620,593.924500 374.045288,594.285034 367.710083,594.285034 
	C366.618225,591.755859 367.865997,590.429260 368.621704,589.010315 
	C378.091095,571.229309 387.689667,553.515564 396.970673,535.636963 
	C398.943268,531.837036 401.262543,530.167603 405.507660,530.580017 
	C408.807648,530.900635 412.163544,530.646301 415.991425,530.647217 
M408.564819,564.537781 
	C408.133331,565.838135 407.551392,567.495361 409.669556,567.497009 
	C413.540253,567.499939 417.530823,568.451721 421.910248,566.571472 
	C419.350128,561.899170 418.244415,556.879150 414.458649,552.150635 
	C412.410706,556.492371 410.654510,560.215637 408.564819,564.537781 
z"/>
<path fill="#000000" opacity="1.000000" stroke="none" 
	d="
M790.676270,575.389160 
	C803.552856,591.474121 795.534424,611.277100 781.966248,617.783875 
	C770.100769,623.473999 755.378967,620.293762 747.684143,610.114014 
	C739.378967,599.126892 739.836853,584.577454 748.798584,574.701782 
	C757.700195,564.892334 772.487793,562.792847 783.923096,569.716492 
	C786.362366,571.193420 788.562622,572.960571 790.676270,575.389160 
z"/>
<path fill="#000000" opacity="1.000000" stroke="none" 
	d="
M429.828369,609.619263 
	C429.891327,607.635376 430.184967,605.980408 432.073578,605.864563 
	C437.050354,605.559021 442.080139,605.134644 447.002075,606.071716 
	C449.561493,606.559143 450.946716,608.822083 451.560303,611.521484 
	C454.055542,609.528015 454.184174,605.714355 458.126740,605.582031 
	C461.741882,605.460693 464.142914,606.489319 465.611664,609.930359 
	C466.751740,612.601318 468.331421,615.084717 469.875916,617.948608 
	C471.318146,615.938843 470.783539,614.238831 470.808594,612.661743 
	C470.919617,605.669678 470.882599,605.664551 478.097168,605.650818 
	C480.761780,605.645752 483.441833,605.488403 486.087738,605.715759 
	C491.018463,606.139587 493.565002,610.345581 491.040436,614.593262 
	C489.667542,616.903137 490.314178,618.527954 491.266449,620.721802 
	C488.181061,621.761658 485.648956,621.845154 483.375397,619.470398 
	C482.105042,618.143433 480.328583,617.534668 478.884277,618.789978 
	C473.721832,623.276917 468.285278,621.868286 462.816895,619.790710 
	C460.344269,618.851318 457.790466,618.381348 455.689972,620.002380 
	C453.344391,621.812500 451.051300,621.242737 448.973785,621.161621 
	C447.361267,619.656860 448.975708,618.377991 448.495026,617.012085 
	C444.265778,618.869812 439.180237,616.883606 435.224274,620.973999 
	C433.543976,622.711426 430.124176,621.534180 429.727081,618.053955 
	C424.131256,622.381470 418.119507,622.007812 412.038361,620.325928 
	C410.250580,619.831421 408.528656,618.288452 409.158722,616.242676 
	C410.124878,613.105713 406.339996,608.610413 411.595093,606.784668 
	C416.594482,605.047729 421.710571,605.003784 426.729187,606.866394 
	C427.994965,607.336121 429.089081,608.169067 429.129303,609.751282 
	C429.179901,611.742859 427.436798,611.407471 426.182220,611.913879 
	C426.768250,613.123657 428.039612,613.059448 428.986176,613.607361 
	C430.452240,612.684143 429.633484,611.224854 429.828369,609.619263 
z"/>
<path fill="#000000" opacity="1.000000" stroke="none" 
	d="
M589.266113,615.304932 
	C588.926270,617.997437 590.153564,621.049011 586.135010,621.349854 
	C582.987854,621.585510 582.090637,619.948730 581.961487,617.170227 
	C581.839294,614.544678 582.714966,610.492859 578.098267,611.575684 
	C574.602722,612.395630 573.144958,615.475220 574.161438,619.250549 
	C574.284302,619.706848 574.224304,620.212402 574.254211,620.795654 
	C571.510315,621.770203 569.086121,621.757385 566.905762,619.527344 
	C565.511353,618.101074 563.508911,617.335327 562.002869,618.884216 
	C557.446106,623.570801 552.044861,621.752686 547.292419,620.335693 
	C544.021484,619.360474 541.584961,618.733032 538.481201,620.486206 
	C534.281738,622.858154 531.778809,621.517578 531.834412,617.546204 
	C529.373596,617.712830 526.901855,617.885010 524.429382,618.045715 
	C522.958435,618.141357 521.334778,617.867126 520.554565,619.626465 
	C519.416504,622.192810 517.192139,621.523071 515.378784,621.063110 
	C513.275208,620.529480 513.677917,618.433960 513.683533,616.840088 
	C513.731750,603.096313 512.423889,605.876526 524.649292,605.675232 
	C532.418213,605.547241 533.579773,606.423279 534.843262,612.979248 
	C536.839355,607.431335 540.113953,603.573914 545.612244,606.089905 
	C549.869873,608.038330 550.043457,613.957886 553.700134,617.761292 
	C554.080078,613.678162 554.410950,610.122070 554.718323,606.818115 
	C555.923340,605.340332 557.345520,605.671936 558.624329,605.668518 
	C569.489685,605.639526 580.355530,605.617676 591.220520,605.689819 
	C593.054199,605.701965 595.569824,604.937073 596.034058,607.865112 
	C596.543640,611.079224 594.183411,611.236145 591.905823,611.368469 
	C589.671387,611.498230 589.292175,613.057678 589.266113,615.304932 
z"/>
<path fill="#000000" opacity="1.000000" stroke="none" 
	d="
M655.532715,617.254272 
	C651.339661,621.729309 642.446777,622.750183 637.954407,619.605957 
	C633.575745,616.541321 633.915955,609.608032 638.586426,607.018127 
	C640.691956,605.850525 643.071472,605.236633 645.346008,605.722168 
	C654.180725,607.607971 663.120667,604.094849 671.707214,605.915710 
	C677.369873,607.116577 682.503601,605.442749 687.874268,605.675415 
	C694.138062,605.946838 697.264099,608.625732 697.175659,613.693726 
	C697.092773,618.447510 693.972290,621.037537 687.968872,621.335632 
	C680.410278,621.710876 678.944946,620.801697 675.639832,613.102539 
	C674.832703,611.222473 673.465332,611.326294 671.972168,611.385681 
	C670.220154,611.455200 669.820251,612.610107 669.842102,614.122864 
	C669.863708,615.617615 669.872803,617.118408 669.765686,618.607727 
	C669.615906,620.690247 668.306091,621.390930 666.352539,621.338806 
	C664.489136,621.289062 663.052429,620.807983 662.908081,618.627441 
	C662.875122,618.129333 662.900513,617.620728 662.807495,617.134460 
	C662.390137,614.952271 663.993469,611.742737 659.922119,611.394287 
	C655.634888,611.027405 656.735657,614.773499 655.532715,617.254272 
M645.438843,615.671509 
	C647.129395,615.578003 649.042175,615.563843 648.951477,613.216858 
	C648.900085,611.888916 647.590759,611.446960 646.350525,611.377747 
	C644.833313,611.293091 643.145081,611.200256 642.589783,612.999756 
	C642.074341,614.670044 643.242798,615.385986 645.438843,615.671509 
M687.097534,611.373840 
	C685.407104,611.397888 683.584045,611.346008 683.485229,613.689453 
	C683.437683,614.817078 684.337708,615.458191 685.418335,615.570312 
	C687.059998,615.740601 688.940491,616.052673 689.749268,614.145264 
	C690.446228,612.501831 689.188293,611.792603 687.097534,611.373840 
z"/>
<path fill="#000000" opacity="1.000000" stroke="none" 
	d="
M316.421631,607.024536 
	C322.646606,604.543030 324.314087,605.106506 327.183624,610.231079 
	C328.358093,612.328491 329.557800,614.411804 330.904327,616.779907 
	C333.036469,612.970215 329.302124,607.794189 333.776642,606.041687 
	C338.021118,604.379272 342.442169,605.604675 344.316284,610.467285 
	C346.369110,610.316345 345.855713,608.987915 346.007812,608.182861 
	C346.478424,605.691589 348.259003,605.672058 350.186188,605.714783 
	C352.320648,605.762085 353.113892,606.974487 353.140411,608.918030 
	C353.172272,611.250610 353.279602,613.587036 353.185150,615.914856 
	C353.108490,617.803833 353.917328,620.383240 351.367462,621.062927 
	C348.842682,621.735962 346.061707,621.971497 343.953522,619.573242 
	C342.544495,617.970337 341.036316,616.454529 339.561005,614.887573 
	C337.258301,616.623352 339.672516,620.447327 336.700928,620.963745 
	C332.842926,621.634216 328.701782,622.392029 325.016449,620.280334 
	C322.270691,618.707031 319.697998,618.387695 317.106628,620.184814 
	C314.799347,621.784851 312.492676,621.603455 309.530823,620.679321 
	C310.914246,615.706970 314.087280,611.772827 316.421631,607.024536 
z"/>
<path fill="#000000" opacity="1.000000" stroke="none" 
	d="
M634.153625,616.788452 
	C634.115723,619.691162 633.413818,621.235229 630.469299,621.409729 
	C626.796143,621.627319 626.991577,618.800720 626.434143,616.406433 
	C620.165100,622.629272 620.165100,622.629272 613.653870,615.941406 
	C614.099548,619.619568 613.256348,621.949829 609.279236,621.314880 
	C607.748108,621.070435 606.787537,620.405762 606.769348,618.816284 
	C606.729492,615.336121 606.531067,611.835327 606.830261,608.380493 
	C607.099792,605.267639 612.776184,604.365479 615.683838,606.970337 
	C617.145447,608.279846 618.347717,609.878967 619.570496,611.239502 
	C621.877258,611.310791 622.642578,609.580322 623.485596,608.299561 
	C625.676575,604.970764 628.923096,605.219543 631.943237,605.945251 
	C634.998413,606.679504 633.930969,609.676880 634.116821,611.846680 
	C634.243713,613.328247 634.145813,614.829102 634.153625,616.788452 
z"/>
<path fill="#000000" opacity="1.000000" stroke="none" 
	d="
M697.978149,619.643066 
	C698.060913,602.824219 693.859436,605.924805 711.987793,605.737000 
	C717.071289,605.684387 719.776917,609.524292 717.869141,614.108643 
	C716.909485,616.414795 716.810669,618.432190 717.432678,620.722900 
	C714.523438,621.749451 712.178650,621.712341 709.969910,619.467651 
	C708.276489,617.746704 706.219421,617.304443 704.447205,619.612732 
	C702.503967,622.143616 700.362976,621.839172 697.978149,619.643066 
z"/>
<path fill="#000000" opacity="1.000000" stroke="none" 
	d="
M363.020813,621.385376 
	C360.136993,620.871399 356.521118,622.879639 355.565765,619.445129 
	C354.425323,615.345215 354.470734,610.935181 355.790405,606.713440 
	C355.837677,606.562134 355.950348,606.412292 356.071350,606.305786 
	C358.543640,604.130615 373.416992,606.052795 375.319092,608.788452 
	C378.949158,614.009277 375.837524,620.733826 369.471527,621.303589 
	C367.493317,621.480652 365.489014,621.366333 363.020813,621.385376 
M369.492096,613.511475 
	C368.255829,610.066650 365.569946,611.301819 363.321777,611.795105 
	C362.309418,612.017212 362.066589,613.487610 362.612976,614.330566 
	C364.114532,616.647217 366.361450,615.653198 368.386780,615.260925 
	C368.766693,615.187378 369.042603,614.576538 369.492096,613.511475 
z"/>
<path fill="#000000" opacity="1.000000" stroke="none" 
	d="
M510.827148,608.774048 
	C507.564575,611.493103 503.826752,609.377808 500.139038,610.807007 
	C502.763977,612.239319 505.140472,611.140747 507.436493,611.202332 
	C509.086975,611.246582 511.081604,611.244751 511.023376,613.602661 
	C510.974945,615.564026 509.177948,615.766113 507.695099,615.854309 
	C505.626953,615.977356 503.546021,615.885437 501.473999,616.807861 
	C503.729187,616.807861 505.985687,616.760681 508.239044,616.825256 
	C509.635681,616.865234 510.938477,617.234009 511.021179,618.988708 
	C511.105072,620.769531 509.878265,621.277161 508.435211,621.296021 
	C504.283722,621.350464 500.131165,621.324219 495.979004,621.322571 
	C493.636383,621.321655 492.769806,619.954285 492.776123,617.810852 
	C492.784943,614.821106 492.789673,611.831116 492.826508,608.841614 
	C492.846924,607.184448 493.381348,605.798828 495.314728,605.773865 
	C499.796661,605.716003 504.280487,605.719849 508.762299,605.783752 
	C510.334198,605.806091 511.201019,606.680908 510.827148,608.774048 
z"/>
<path fill="#000000" opacity="1.000000" stroke="none" 
	d="
M383.004761,620.126587 
	C383.172943,613.886475 376.973328,611.538269 375.567291,606.351990 
	C379.863312,604.508118 382.967407,606.088989 385.695312,609.622925 
	C388.877930,607.200256 391.774017,603.981750 396.679779,606.511841 
	C395.140808,611.695679 388.481934,614.338257 389.052032,620.524475 
	C386.903290,621.577942 385.026642,621.706726 383.004761,620.126587 
z"/>
</svg>