<?xml version="1.0" encoding="UTF-8" standalone="no"?><!DOCTYPE svg PUBLIC "-//W3C//DTD SVG 1.1//EN" "http://www.w3.org/Graphics/SVG/1.1/DTD/svg11.dtd"><svg width="100%" height="100%" viewBox="0 0 4267 4267" version="1.1" xmlns="http://www.w3.org/2000/svg" xmlns:xlink="http://www.w3.org/1999/xlink" xml:space="preserve" xmlns:serif="http://www.serif.com/" style="fill-rule:evenodd;clip-rule:evenodd;stroke-linejoin:round;stroke-miterlimit:2;"><g id="Background"><path d="M1563.87,1620.151c-14.114,31.3 -441.286,885.412 -441.286,885.412l-66.237,-42.274c0,0 414.156,-819.823 442.312,-884.146c7.644,-17.462 22.943,-24.087 46.709,-44.322c3.249,-2.767 240.685,-210.733 260.47,-227.418c34.516,-29.108 32.713,-36.805 46.374,-32.871c2.013,0.58 1.811,1.204 29.126,8.453c25.689,6.818 38.71,7.817 38.853,12.523c0.082,2.7 -27.59,22.951 -76.165,66.885c-110.822,100.235 -250.194,224.768 -254.531,228.76c-15.073,13.874 -18.524,13.248 -25.625,28.997Z" style="fill:#fdfdfc;"/><path d="M691.265,2131.867c107.333,-86.057 249.981,-133.944 402.936,-123.377c288.768,19.95 512.492,241.215 523.28,505.449l-145.03,-59.826c-37.18,-170.418 -192.59,-304.73 -387.056,-318.165c-90.931,-6.282 -177.039,14.788 -249.114,55.74l-145.017,-59.821Z" style="fill:#fff;"/><path d="M2195.327,1912.701c-1.857,-3.198 -20.705,-22.81 -18.034,-25.447c5.804,-5.729 31.44,25.48 91.724,36.419c96.857,17.575 146.191,17.499 228.8,7.789c5.666,-0.666 278.871,-62.862 309.453,-72.109c4.557,-1.378 170.056,-48.61 187.724,-53.265c4.573,-1.205 38.225,-6.37 45.423,-6.705c24.596,-1.142 24.833,-1.233 38.09,3.919c48.426,18.817 203.161,76.596 225.009,87.753c14.902,7.61 22.28,6.413 17.327,22.388c-5.324,17.173 -14.243,51.542 -15.747,55.821c-8.834,25.133 -7.856,26.244 -11.856,34.659c-3.927,8.26 -68.931,5.396 -69.472,5.356c-73.021,-5.507 -274.332,4.466 -345.97,15.18c-82.443,12.33 -97.847,21.983 -136.862,35.816c-61.647,21.858 -151.85,64.007 -175.513,69.253c-31.581,7.001 -85.76,22.813 -104.932,23.243c-158.323,3.547 -276.425,-36.687 -296.006,-48.666c-11.268,-6.894 -16.861,-19.825 -15.39,-29.232c2.823,-18.051 51.265,-24.968 54.924,-79.263c0.769,-11.418 1.701,-11.251 2.313,-20.935c2.911,-46.03 -9.744,-59.803 -11.004,-61.973Z" style="fill:#fcfdfc;"/><path d="M2014.815,1861.464c13.675,2.889 95.015,18.307 113.269,28.101c21.121,11.333 52.377,30.023 50.456,76.852c-1.852,45.141 -20.457,58.845 -42.589,79.586c-32.532,30.486 -53.051,40.024 -117.28,47.993c-30.282,3.757 -478.848,10.673 -491.202,7.952c-21.684,-4.775 -84.352,-20.715 -80.31,-118.974c0.332,-8.068 -3.279,-31.491 41.47,-121.322c25.799,-51.79 59.985,-85.732 87.756,-108.771c10.817,-8.974 50.856,-35.41 79.78,-38.146c24.848,-2.35 44.67,-1.082 45.629,-0.843c26.47,6.597 52.867,55.906 109.255,88.989c9.852,5.78 30.407,16.081 44.436,23.418c58.528,30.611 91.305,20.793 159.331,35.164Z" style="fill:#fdfdfd;"/><g><path d="M3220.336,2174.021c226.064,0 409.598,183.535 409.598,409.598c0,226.064 -183.535,409.598 -409.598,409.598c-226.064,0 -409.598,-183.535 -409.598,-409.598c0,-226.064 183.535,-409.598 409.598,-409.598Zm0,118.235c-160.808,0 -291.364,130.556 -291.364,291.364c0,160.808 130.556,291.364 291.364,291.364c160.808,0 291.364,-130.556 291.364,-291.364c0,-160.808 -130.556,-291.364 -291.364,-291.364Z" style="fill:#fff;"/><circle cx="3220.336" cy="2583.619" r="144.89" style="fill:#fff;"/></g><g><g><path d="M1037.374,2174.021c226.064,0 409.598,183.535 409.598,409.598c0,226.064 -183.535,409.598 -409.598,409.598c-226.064,0 -409.598,-183.535 -409.598,-409.598c0,-226.064 183.535,-409.598 409.598,-409.598Zm0,118.235c-160.808,0 -291.364,130.556 -291.364,291.364c0,160.808 130.556,291.364 291.364,291.364c160.808,0 291.364,-130.556 291.364,-291.364c0,-160.808 -130.556,-291.364 -291.364,-291.364Z" style="fill:#fff;"/><circle cx="1037.374" cy="2583.619" r="144.89" style="fill:#fff;"/></g></g><path d="M1402.113,1483.051c27.233,33.927 20.707,39.14 13.026,54.381c-8.859,17.578 -37.377,53.087 -63.415,69.862c-14.87,9.58 -55.479,23.768 -65.629,27.375c-13.103,4.657 -59.791,16.964 -88.144,17.855c-37.452,1.176 -50.021,-0.885 -54.31,-1.589c-15.435,-2.532 -31.276,3.268 -43.951,-14.92c-6.375,-9.147 -1.48,-10.454 -2.844,-169.666c-0.419,-48.933 -0.763,-55.669 10.465,-65.489c3.968,-3.471 8.205,-7.176 65.686,-5.349c27.269,0.867 88.244,7.014 128.845,21.732c46.65,16.911 67.786,34.487 72.861,38.707c11.292,9.39 12.015,9.711 27.409,27.101Z" style="fill:#fdfdfc;"/></g><g><g transform="matrix(96.16643,0,0,96.16643,2763.004602,2747.938974)"></g><text x="1503.825px" y="2747.939px" style="font-family:'Arial-BoldMT', 'Arial', sans-serif;font-weight:700;font-size:96.166px;fill:#fff;">ANDY<tspan x="1774.575px 1801.293px 1865.436px 1922.441px 1991.889px " y="2747.939px 2747.939px 2747.939px 2747.939px 2747.939px "> SPAR</tspan>EP<tspan x="2182.484px 2251.933px " y="2747.939px 2747.939px ">AR</tspan>T MOT<tspan x="2618.755px 2693.556px " y="2747.939px 2747.939px ">OR</tspan></text><g transform="matrix(424.596381,0,0,424.596381,2619.949863,2618.863356)"></g><text x="1676.425px" y="2618.863px" style="font-family:'Arial-BoldMT', 'Arial', sans-serif;font-weight:700;font-size:424.596px;fill:#fff;">ASM</text></g></svg>